<svg xmlns="http://www.w3.org/2000/svg" viewBox="0 0 720 138" width="720" height="138" role="img" class="ter-chart-svg" aria-labelledby="token-composition-title token-composition-desc" font-family="system-ui,-apple-system,Segoe UI,sans-serif">
<title id="token-composition-title">Token composition by label</title>
<desc id="token-composition-desc">Token composition by label. Aligned reasoning (30, 6.2%); Aligned tool call (317, 65.9%); Aligned response (71, 14.8%); Redundant reasoning (35, 7.3%); Unnecessary tool call (28, 5.8%)</desc>
<rect width="720" height="138" rx="8" fill="#fcfcfb" class="ter-f-surface"/>
<text x="16.0" y="24.0" fill="#0b0b0b" class="ter-f-ink" font-size="15" font-weight="600">Token composition by label</text>
<rect x="16.0" y="36" width="40.9" height="42" rx="4" fill="#2a78d6" class="ter-f-series-1"><title>Aligned reasoning: 30 tokens, 6.2%</title></rect>
<rect x="58.9" y="36" width="451.4" height="42" rx="4" fill="#eb6834" class="ter-f-series-2"><title>Aligned tool call: 317 tokens, 65.9%</title></rect>
<text x="284.6" y="61.0" text-anchor="middle" font-size="12" font-weight="600" fill="#0b0b0b" class="ter-f-on-series-2">65.9%</text>
<rect x="512.3" y="36" width="99.6" height="42" rx="4" fill="#1baf7a" class="ter-f-series-3"><title>Aligned response: 71 tokens, 14.8%</title></rect>
<text x="562.1" y="61.0" text-anchor="middle" font-size="12" font-weight="600" fill="#0b0b0b" class="ter-f-on-series-3">14.8%</text>
<rect x="613.9" y="36" width="48.1" height="42" rx="4" fill="#eda100" class="ter-f-series-4"><title>Redundant reasoning: 35 tokens, 7.3%</title></rect>
<rect x="664.0" y="36" width="40.0" height="42" rx="4" fill="#e87ba4" class="ter-f-series-5"><title>Unnecessary tool call: 28 tokens, 5.8%</title></rect>
<rect x="16.0" y="94.0" width="10" height="10" rx="2" fill="#2a78d6" class="ter-f-series-1"/>
<text x="30.0" y="103.0" fill="#52514e" class="ter-f-ink-2" font-size="11">Aligned reasoning (30, 6.2%)</text>
<rect x="219.6" y="94.0" width="10" height="10" rx="2" fill="#eb6834" class="ter-f-series-2"/>
<text x="233.6" y="103.0" fill="#52514e" class="ter-f-ink-2" font-size="11">Aligned tool call (317, 65.9%)</text>
<rect x="435.6" y="94.0" width="10" height="10" rx="2" fill="#1baf7a" class="ter-f-series-3"/>
<text x="449.6" y="103.0" fill="#52514e" class="ter-f-ink-2" font-size="11">Aligned response (71, 14.8%)</text>
<rect x="16.0" y="112.0" width="10" height="10" rx="2" fill="#eda100" class="ter-f-series-4"/>
<text x="30.0" y="121.0" fill="#52514e" class="ter-f-ink-2" font-size="11">Redundant reasoning (35, 7.3%)</text>
<rect x="232.0" y="112.0" width="10" height="10" rx="2" fill="#e87ba4" class="ter-f-series-5"/>
<text x="246.0" y="121.0" fill="#52514e" class="ter-f-ink-2" font-size="11">Unnecessary tool call (28, 5.8%)</text>
</svg>